PathFileType	4	(X/Y/Z)	C:/Users/opensim2020/Desktop/walking_exp_matlab/subject06_walking13_straight_03_cyclic.trc																																																																																																																																																				
DataRate	CameraRate	NumFrames	NumMarkers	Units	OrigDataRate	OrigDataStartFrame	OrigNumFrames																																																																																																																																																
100	100	4	50	mm	100	2221	111																																																																																																																																																
Frame#	Time	LFHD			RFHD			LBHD			RBHD			C7			T10			CLAV			STRN			RBAK			LSHO			LUPA			LELB			LFRM			LWRA			LWRB			LFIN			RSHO			RUPA			RELB			RFRM			RWRA			RWRB			RFIN			LASI			RASI			LPSI			RPSI			LTHI			LKNE			LTIB			LANK			LHEE			LTOE			RTHI			RKNE			RTIB			RANK			RHEE			RTOE			*39			*40			*41			*42			*43			*44			*45			*46			*47			*48			*49		
		X1	Y1	Z1	X2	Y2	Z2	X3	Y3	Z3	X4	Y4	Z4	X5	Y5	Z5	X6	Y6	Z6	X7	Y7	Z7	X8	Y8	Z8	X9	Y9	Z9	X10	Y10	Z10	X11	Y11	Z11	X12	Y12	Z12	X13	Y13	Z13	X14	Y14	Z14	X15	Y15	Z15	X16	Y16	Z16	X17	Y17	Z17	X18	Y18	Z18	X19	Y19	Z19	X20	Y20	Z20	X21	Y21	Z21	X22	Y22	Z22	X23	Y23	Z23	X24	Y24	Z24	X25	Y25	Z25	X26	Y26	Z26	X27	Y27	Z27	X28	Y28	Z28	X29	Y29	Z29	X30	Y30	Z30	X31	Y31	Z31	X32	Y32	Z32	X33	Y33	Z33	X34	Y34	Z34	X35	Y35	Z35	X36	Y36	Z36	X37	Y37	Z37	X38	Y38	Z38	X39	Y39	Z39	X40	Y40	Z40	X41	Y41	Z41	X42	Y42	Z42	X43	Y43	Z43	X44	Y44	Z44	X45	Y45	Z45	X46	Y46	Z46	X47	Y47	Z47	X48	Y48	Z48	X49	Y49	Z49	X50	Y50	Z50
																																																																																																																																																							
14	0.13	-342.66763	1668.05164	-1047.28455	-356.67825	1651.36279	-916.94666	-475.49088	1617.53271	-1064.58301	-488.10825	1605.74524	-936.41168	-486.12543	1457.79138	-1011.43616	-530.64154	1130.04761	-1004.44623	-377.23047	1377.57239	-1005.22491	-341.3252	1202.18896	-1013.69019	-567.58105	1289.25537	-935.72095	-425.57935	1412.88696	-1169.76245	-422.85983	1209.68506	-1238.69641	-421.62067	1095.78906	-1247.72729	-345.35059	969.22644	-1274.74707	-231.12915	903.62897	-1244.77197	-285.90387	865.76245	-1271.12964	-208.86584	818.83551	-1281.17334	-429.55179	1408.79504	-845.91656	-479.69794	1212.745	-760.03882	-474.67166	1090.12732	-746.13959	-456.35507	971.02643	-729.72644	-392.1069	833.9718	-763.30902	-445.51187	834.047	-721.86292	-406.84277	758.53265	-721.68805	-359.23868	965.3515	-1117.67957	-349.44214	975.20874	-896.97601	-516.8844	990.78864	-1082.74487	-502.42709	999.20679	-914.96051	-399.51852	648.43744	-1178.28442	-373.4863	487.29694	-1166.49414	-555.13452	321.70944	-1157.53833	-676.50128	198.73993	-1121.57275	-709.62793	210.39873	-1069.87598	-603.82483	74.92827	-1139.14343	-373.5881	640.9668	-841.01355	-354.4801	518.2868	-871.0788	-390.87686	251.5271	-878.1933	-397.31161	66.81284	-929.86304	-435.5983	43.18423	-975.99237	-244.17258	35.12605	-931.48297	-447.55969	1706.43286	-997.29883	NaN	NaN	NaN	NaN	NaN	NaN	NaN	NaN	NaN	NaN	NaN	NaN	NaN	NaN	NaN	NaN	NaN	NaN	NaN	NaN	NaN	NaN	NaN	NaN	NaN	NaN	NaN	NaN	NaN	NaN
15	0.14	-333.3956	1668.96326	-1046.9574	-347.06088	1652.31567	-916.63361	-466.20212	1618.36694	-1064.01355	-478.77554	1606.67578	-935.73663	-476.74326	1458.65747	-1010.57526	-521.49683	1130.9978	-1003.4538	-367.93167	1378.47656	-1004.69434	-332.1044	1203.11267	-1013.07062	-558.33685	1290.52124	-934.26984	-416.74088	1413.84778	-1169.16333	-415.32834	1210.49707	-1237.97412	-415.18335	1096.64136	-1246.97876	-343.46573	967.05444	-1274.16931	-231.89426	896.61517	-1244.82275	-288.52646	861.03381	-1270.70264	-213.52397	811.04803	-1281.30591	-419.69293	1409.77625	-845.26208	-467.4548	1213.32629	-758.82983	-460.27689	1090.81982	-744.44666	-439.09238	972.22168	-728.11865	-371.63943	836.79266	-762.16626	-424.53131	835.27649	-720.54102	-384.22638	761.05627	-720.61035	-350.02286	966.60364	-1116.4342	-341.4371	975.5824	-895.92285	-507.84271	992.17365	-1082.27991	-493.59793	999.88324	-914.66486	-386.4162	650.08264	-1177.93701	-357.52441	489.44086	-1165.33911	-535.41669	320.16953	-1156.83704	-654.01331	194.4324	-1121.26746	-687.87402	204.8564	-1069.68054	-576.75305	73.92754	-1138.99353	-368.50677	640.89545	-840.70819	-350.98581	517.87592	-870.57642	-390.29764	251.64024	-878.38348	-397.43884	66.89004	-930.06171	-435.82654	43.30673	-976.13452	-244.37038	35.11563	-931.42841	-438.24738	1707.35364	-996.87592	NaN	NaN	NaN	NaN	NaN	NaN	NaN	NaN	NaN	NaN	NaN	NaN	NaN	NaN	NaN	NaN	NaN	NaN	NaN	NaN	NaN	NaN	NaN	NaN	NaN	NaN	NaN	NaN	NaN	NaN
16	0.15	-324.04196	1669.72351	-1046.6062	-337.65353	1653.1969	-916.32532	-456.88943	1619.09534	-1063.52917	-469.08572	1607.66479	-935.42603	-467.53418	1459.51184	-1009.68945	-512.44012	1131.86121	-1002.58136	-358.7009	1379.29163	-1004.08154	-322.89468	1203.88135	-1012.45374	-548.95453	1291.47803	-933.0199	-408.0144	1414.59363	-1168.53735	-407.79803	1211.14429	-1237.24097	-408.68011	1097.28406	-1246.30713	-341.88577	964.87158	-1273.64771	-233.14848	889.61096	-1244.91174	-291.52872	856.42267	-1270.21167	-219.00529	803.28937	-1281.41357	-410.03467	1410.60559	-844.68335	-454.91525	1213.96375	-757.38623	-445.91519	1091.50342	-742.72852	-421.81561	973.51337	-726.43115	-351.56183	839.83606	-761.19531	-403.60632	837.08075	-718.82434	-361.44934	763.81824	-719.33154	-340.79755	967.69391	-1115.10095	-333.3075	975.89508	-894.73041	-498.8382	993.32098	-1081.92505	-485.50867	1000.62811	-914.10663	-373.32663	651.69055	-1177.62988	-341.71088	491.59753	-1164.26892	-515.43011	318.14221	-1156.27002	-630.83838	189.34937	-1120.95911	-665.47839	198.56953	-1069.45959	-549.08105	72.28839	-1138.79285	-363.7406	640.81793	-840.50446	-347.31332	517.53467	-870.1178	-389.59711	251.7334	-878.44397	-397.5574	66.9877	-930.29126	-436.4469	43.54927	-976.4278	-244.5634	35.09148	-931.41083	-428.76785	1708.10693	-996.51599	NaN	NaN	NaN	NaN	NaN	NaN	NaN	NaN	NaN	NaN	NaN	NaN	NaN	NaN	NaN	NaN	NaN	NaN	NaN	NaN	NaN	NaN	NaN	NaN	NaN	NaN	NaN	NaN	NaN	NaN
17	0.16	-314.73083	1670.28101	-1046.42639	-328.19318	1653.90222	-915.95245	-447.58331	1619.73242	-1062.98169	-459.65335	1608.35522	-934.79211	-458.29013	1460.19263	-1008.88977	-503.38977	1132.59546	-1001.78638	-349.49619	1379.95129	-1003.56982	-313.74515	1204.50073	-1011.84332	-539.70398	1292.27466	-931.86627	-399.2067	1414.99536	-1167.79834	-400.4122	1211.68787	-1236.59692	-402.30469	1097.83093	-1245.54919	-340.4285	962.75598	-1273.10974	-234.73476	882.67694	-1244.98865	-295.00427	852.20551	-1269.474	-224.94366	795.77612	-1281.47742	-400.42453	1411.36316	-844.06104	-442.42264	1214.40784	-756.02692	-431.5217	1092.20691	-741.0802	-404.55075	974.89777	-724.677	-331.06256	842.98291	-760.02655	-382.59488	839.08722	-717.02142	-338.57034	766.90723	-717.90961	-331.65906	968.65179	-1113.76672	-325.44095	976.01465	-893.60419	-489.88989	994.40527	-1081.53845	-477.34125	1001.18488	-913.73724	-360.44495	653.31714	-1177.66785	-326.04633	493.72476	-1163.28186	-495.26657	315.64825	-1155.84595	-607.07019	183.593	-1120.51013	-642.49316	191.59668	-1069.05579	-520.5036	70.18487	-1138.27222	-358.99594	640.70032	-840.29004	-343.79468	517.26532	-869.27533	-388.68857	251.84044	-878.56525	-397.65625	67.09246	-930.47913	-436.15674	43.44913	-976.52435	-244.70279	35.03088	-931.39685	-419.42142	1708.82898	-996.05872	NaN	NaN	NaN	NaN	NaN	NaN	NaN	NaN	NaN	NaN	NaN	NaN	NaN	NaN	NaN	NaN	NaN	NaN	NaN	NaN	NaN	NaN	NaN	NaN	NaN	NaN	NaN	NaN	NaN	NaN
